#!OML:ASF E:\motion texture\Top Level 1\Subject 1\Session 1\male.ASF
:FULLY-SPECIFIED
:DEGREES
128
root 14.2488 17.9161 7.06424 55.8431 -84.6583 -51.3691
lowerback -0.402939 0.535869 -0.456714
upperback -2.21351 0.695788 0.110328
thorax -2.04844 0.349705 0.359423
lowerneck -13.9495 -3.62708 -7.12179
upperneck 16.5733 -3.53086 0.154969
head 7.54665 -2.15886 0.835199
rclavicle 6.8969e-015 -3.18055e-015
rhumerus -24.876 -12.4643 -69.8058
rradius 79.688
rwrist -8.40292
rhand -22.0328 -40.9942
rfingers 7.12502
rthumb 4.37707 -70.929
lclavicle 6.8969e-015 -3.18055e-015
lhumerus -25.8954 -2.40243 82.8734
lradius 93.8764
lwrist -14.5446
lhand -9.94188 28.5802
lfingers 7.12502
lthumb 16.0396 57.9363
rfemur -25.1303 -11.8775 23.8878
rtibia 68.2511
rfoot 4.91362 -19.7377
rtoes 12.4959
lfemur -13.1838 -4.44177 -16.3512
ltibia 18.0393
lfoot -6.94542 -1.2695
ltoes 4.39383
129
root 14.1225 17.9281 7.07347 53.6229 -84.657 -49.1412
lowerback -0.35016 0.465911 -0.565476
upperback -2.25677 0.601061 0.13262
thorax -2.12307 0.304671 0.443861
lowerneck -13.8872 -3.63544 -7.1511
upperneck 16.6049 -3.5382 0.129253
head 7.54679 -2.16818 0.831358
rclavicle -4.27562e-015 -1.51076e-014
rhumerus -24.5671 -13.2356 -69.0688
rradius 81.3813
rwrist -8.04488
rhand -22.4223 -40.7127
rfingers 7.12502
rthumb 4.00099 -70.6548
lclavicle -4.27562e-015 -1.51076e-014
lhumerus -25.1404 -2.3648 82.5372
lradius 94.9107
lwrist -14.8521
lhand -11.0729 28.2133
lfingers 7.12502
lthumb 14.9503 57.6537
rfemur -26.0712 -11.9906 23.7146
rtibia 67.9487
rfoot 4.15161 -19.3105
rtoes 12.199
lfemur -12.4001 -4.48786 -16.5651
ltibia 17.4605
lfoot -7.12321 -1.33602
ltoes 4.46202
130
root 13.997 17.9384 7.082 51.4827 -84.6591 -46.9825
lowerback -0.297409 0.397481 -0.673777
upperback -2.30723 0.507991 0.150275
thorax -2.20466 0.260533 0.523468
lowerneck -13.8106 -3.64576 -7.18492
upperneck 16.6281 -3.55136 0.118346
head 7.54218 -2.17899 0.832776
rclavicle 1.03981e-014 1.43125e-014
rhumerus -24.2016 -13.9776 -68.391
rradius 83.054
rwrist -7.6549
rhand -22.8205 -40.4187
rfingers 7.12502
rthumb 3.61645 -70.3678
lclavicle 1.03981e-014 1.43125e-014
lhumerus -24.3576 -2.28975 82.2015
lradius 95.896
lwrist -15.1711
lhand -12.1634 27.7727
lfingers 7.12502
lthumb 13.8995 57.2882
rfemur -26.9835 -12.056 23.5417
rtibia 67.4969
rfoot 3.28127 -18.8969
rtoes 11.7448
lfemur -11.6346 -4.51884 -16.776
ltibia 16.8923
lfoot -7.30245 -1.40167
ltoes 4.525
131
root 13.8721 17.9471 7.08978 49.417 -84.657 -44.8846
lowerback -0.248889 0.329942 -0.77839
upperback -2.36583 0.415809 0.167059
thorax -2.29188 0.216884 0.600344
lowerneck -13.7156 -3.66061 -7.22255
upperneck 16.6423 -3.57316 0.115346
head 7.53189 -2.19329 0.836836
rclavicle -1.21616e-014 5.56597e-015
rhumerus -23.7793 -14.6871 -67.7738
rradius 84.7037
rwrist -7.25869
rhand -23.2429 -40.0838
rfingers 7.12502
rthumb 3.20851 -70.0394
lclavicle -1.21616e-014 5.56597e-015
lhumerus -23.5516 -2.18496 81.8781
lradius 96.8318
lwrist -15.4796
lhand -13.2213 27.2876
lfingers 7.12502
lthumb 12.8799 56.8702
rfemur -27.8684 -12.0816 23.3767
rtibia 66.8955
rfoot 2.31928 -18.5517
rtoes 11.1676
lfemur -10.8944 -4.54128 -16.9762
ltibia 16.3398
lfoot -7.48637 -1.46424
ltoes 4.56147
132
root 13.7481 17.9541 7.09682 47.3705 -84.6567 -42.7963
lowerback -0.20453 0.26267 -0.886308
upperback -2.42521 0.323688 0.180047
thorax -2.37722 0.173421 0.675435
lowerneck -13.6101 -3.68156 -7.26297
upperneck 16.6421 -3.60511 0.120163
head 7.51559 -2.21152 0.843104
rclavicle 7.56624e-015 -2.54444e-014
rhumerus -23.2784 -15.3757 -67.2331
rradius 86.3231
rwrist -6.87105
rhand -23.7076 -39.6935
rfingers 7.12502
rthumb 2.75978 -69.6554
lclavicle 7.56624e-015 -2.54444e-014
lhumerus -22.7139 -2.05166 81.5702
lradius 97.7185
lwrist -15.766
lhand -14.2435 26.735
lfingers 7.12502
lthumb 11.8943 56.3771
rfemur -28.7219 -12.078 23.2088
rtibia 66.1497
rfoot 1.30695 -18.307
rtoes 10.4863
lfemur -10.1787 -4.56076 -17.1769
ltibia 15.8123
lfoot -7.6828 -1.52001
ltoes 4.54721
